<mxfile host="app.diagrams.net" agent="Mozilla/5.0 (Windows NT 10.0; Win64; x64) AppleWebKit/537.36 (KHTML, like Gecko) Chrome/140.0.0.0 Safari/537.36 Edg/140.0.0.0" version="28.2.2">
  <diagram id="C5RBs43oDa-KdzZeNtuy" name="Page-1">
    <mxGraphModel dx="1306" dy="1741" grid="1" gridSize="10" guides="1" tooltips="1" connect="1" arrows="1" fold="1" page="1" pageScale="1" pageWidth="827" pageHeight="1169" math="0" shadow="0">
      <root>
        <mxCell id="WIyWlLk6GJQsqaUBKTNV-0" />
        <mxCell id="WIyWlLk6GJQsqaUBKTNV-1" parent="WIyWlLk6GJQsqaUBKTNV-0" />
        <mxCell id="WIyWlLk6GJQsqaUBKTNV-2" value="" style="rounded=0;html=1;jettySize=auto;orthogonalLoop=1;fontSize=11;endArrow=block;endFill=0;endSize=8;strokeWidth=1;shadow=0;labelBackgroundColor=none;edgeStyle=orthogonalEdgeStyle;" parent="WIyWlLk6GJQsqaUBKTNV-1" source="WIyWlLk6GJQsqaUBKTNV-3" edge="1">
          <mxGeometry relative="1" as="geometry">
            <mxPoint x="220" y="170" as="targetPoint" />
          </mxGeometry>
        </mxCell>
        <mxCell id="WIyWlLk6GJQsqaUBKTNV-3" value="初始化远程驱动器并进行异步登录&lt;div&gt;initialize_remote_driver&lt;/div&gt;" style="rounded=1;whiteSpace=wrap;html=1;fontSize=12;glass=0;strokeWidth=1;shadow=0;" parent="WIyWlLk6GJQsqaUBKTNV-1" vertex="1">
          <mxGeometry x="125" y="80" width="190" height="40" as="geometry" />
        </mxCell>
        <mxCell id="VlXUqlwVu7cq7PH0LeZ4-0" value="从环境配置中获取账号密码&lt;div&gt;remote_account、remote_password&lt;/div&gt;" style="rounded=1;whiteSpace=wrap;html=1;" vertex="1" parent="WIyWlLk6GJQsqaUBKTNV-1">
          <mxGeometry x="-180" y="80" width="220" height="40" as="geometry" />
        </mxCell>
        <mxCell id="VlXUqlwVu7cq7PH0LeZ4-1" value="" style="rounded=0;html=1;jettySize=auto;orthogonalLoop=1;fontSize=11;endArrow=block;endFill=0;endSize=8;strokeWidth=1;shadow=0;labelBackgroundColor=none;edgeStyle=orthogonalEdgeStyle;entryX=1;entryY=0.5;entryDx=0;entryDy=0;exitX=0;exitY=0.5;exitDx=0;exitDy=0;" edge="1" parent="WIyWlLk6GJQsqaUBKTNV-1" source="WIyWlLk6GJQsqaUBKTNV-3" target="VlXUqlwVu7cq7PH0LeZ4-0">
          <mxGeometry relative="1" as="geometry">
            <mxPoint x="120" y="100" as="sourcePoint" />
            <mxPoint x="45" y="99.71000000000001" as="targetPoint" />
            <Array as="points" />
          </mxGeometry>
        </mxCell>
        <mxCell id="VlXUqlwVu7cq7PH0LeZ4-2" value="" style="rounded=0;html=1;jettySize=auto;orthogonalLoop=1;fontSize=11;endArrow=block;endFill=0;endSize=8;strokeWidth=1;shadow=0;labelBackgroundColor=none;edgeStyle=orthogonalEdgeStyle;" edge="1" parent="WIyWlLk6GJQsqaUBKTNV-1" target="VlXUqlwVu7cq7PH0LeZ4-3">
          <mxGeometry relative="1" as="geometry">
            <mxPoint x="-70" y="120" as="sourcePoint" />
            <mxPoint x="-40.16999999999999" y="170" as="targetPoint" />
            <Array as="points">
              <mxPoint x="-70" y="120" />
            </Array>
          </mxGeometry>
        </mxCell>
        <mxCell id="VlXUqlwVu7cq7PH0LeZ4-3" value="给节点添加唯一id" style="rounded=1;whiteSpace=wrap;html=1;" vertex="1" parent="WIyWlLk6GJQsqaUBKTNV-1">
          <mxGeometry x="-130" y="180" width="120" height="40" as="geometry" />
        </mxCell>
        <mxCell id="VlXUqlwVu7cq7PH0LeZ4-4" value="执行用户登录user_login" style="rounded=1;whiteSpace=wrap;html=1;" vertex="1" parent="WIyWlLk6GJQsqaUBKTNV-1">
          <mxGeometry x="-130" y="430" width="120" height="40" as="geometry" />
        </mxCell>
        <mxCell id="VlXUqlwVu7cq7PH0LeZ4-5" value="" style="rounded=0;html=1;jettySize=auto;orthogonalLoop=1;fontSize=11;endArrow=block;endFill=0;endSize=8;strokeWidth=1;shadow=0;labelBackgroundColor=none;edgeStyle=orthogonalEdgeStyle;" edge="1" parent="WIyWlLk6GJQsqaUBKTNV-1">
          <mxGeometry relative="1" as="geometry">
            <mxPoint x="-70.31" y="220" as="sourcePoint" />
            <mxPoint x="-70.14000000000001" y="270" as="targetPoint" />
          </mxGeometry>
        </mxCell>
        <mxCell id="VlXUqlwVu7cq7PH0LeZ4-8" value="判断redis缓存是否有节点" style="strokeWidth=2;html=1;shape=mxgraph.flowchart.decision;whiteSpace=wrap;" vertex="1" parent="WIyWlLk6GJQsqaUBKTNV-1">
          <mxGeometry x="-165" y="270" width="190" height="90" as="geometry" />
        </mxCell>
        <mxCell id="VlXUqlwVu7cq7PH0LeZ4-9" value="" style="rounded=0;html=1;jettySize=auto;orthogonalLoop=1;fontSize=11;endArrow=block;endFill=0;endSize=8;strokeWidth=1;shadow=0;labelBackgroundColor=none;edgeStyle=orthogonalEdgeStyle;entryX=0.5;entryY=0;entryDx=0;entryDy=0;" edge="1" parent="WIyWlLk6GJQsqaUBKTNV-1" target="VlXUqlwVu7cq7PH0LeZ4-4">
          <mxGeometry relative="1" as="geometry">
            <mxPoint x="-70.36" y="360" as="sourcePoint" />
            <mxPoint x="-70.19000000000001" y="410" as="targetPoint" />
          </mxGeometry>
        </mxCell>
        <mxCell id="VlXUqlwVu7cq7PH0LeZ4-11" value="" style="rounded=0;html=1;jettySize=auto;orthogonalLoop=1;fontSize=11;endArrow=block;endFill=0;endSize=8;strokeWidth=1;shadow=0;labelBackgroundColor=none;edgeStyle=orthogonalEdgeStyle;entryX=0.5;entryY=0;entryDx=0;entryDy=0;exitX=0;exitY=0.5;exitDx=0;exitDy=0;" edge="1" parent="WIyWlLk6GJQsqaUBKTNV-1" target="VlXUqlwVu7cq7PH0LeZ4-12">
          <mxGeometry relative="1" as="geometry">
            <mxPoint x="-165" y="314.65999999999997" as="sourcePoint" />
            <mxPoint x="-250" y="314.65999999999997" as="targetPoint" />
            <Array as="points" />
          </mxGeometry>
        </mxCell>
        <mxCell id="VlXUqlwVu7cq7PH0LeZ4-12" value="使用机器的mac地址生成固定哈希值" style="rounded=1;whiteSpace=wrap;html=1;" vertex="1" parent="WIyWlLk6GJQsqaUBKTNV-1">
          <mxGeometry x="-300" y="430" width="120" height="40" as="geometry" />
        </mxCell>
        <mxCell id="VlXUqlwVu7cq7PH0LeZ4-13" value="否" style="text;html=1;align=center;verticalAlign=middle;whiteSpace=wrap;rounded=0;" vertex="1" parent="WIyWlLk6GJQsqaUBKTNV-1">
          <mxGeometry x="-220" y="290" width="40" height="20" as="geometry" />
        </mxCell>
        <mxCell id="VlXUqlwVu7cq7PH0LeZ4-14" value="是" style="text;html=1;align=center;verticalAlign=middle;whiteSpace=wrap;rounded=0;" vertex="1" parent="WIyWlLk6GJQsqaUBKTNV-1">
          <mxGeometry x="-70" y="380" width="40" height="20" as="geometry" />
        </mxCell>
        <mxCell id="VlXUqlwVu7cq7PH0LeZ4-15" value="" style="rounded=0;html=1;jettySize=auto;orthogonalLoop=1;fontSize=11;endArrow=block;endFill=0;endSize=8;strokeWidth=1;shadow=0;labelBackgroundColor=none;edgeStyle=orthogonalEdgeStyle;exitX=0;exitY=0.5;exitDx=0;exitDy=0;" edge="1" parent="WIyWlLk6GJQsqaUBKTNV-1">
          <mxGeometry relative="1" as="geometry">
            <mxPoint x="-180" y="449.76" as="sourcePoint" />
            <mxPoint x="-130" y="450" as="targetPoint" />
            <Array as="points" />
          </mxGeometry>
        </mxCell>
        <mxCell id="VlXUqlwVu7cq7PH0LeZ4-16" value="" style="rounded=0;html=1;jettySize=auto;orthogonalLoop=1;fontSize=11;endArrow=block;endFill=0;endSize=8;strokeWidth=1;shadow=0;labelBackgroundColor=none;edgeStyle=orthogonalEdgeStyle;entryX=0.5;entryY=0;entryDx=0;entryDy=0;" edge="1" parent="WIyWlLk6GJQsqaUBKTNV-1">
          <mxGeometry relative="1" as="geometry">
            <mxPoint x="-70.91" y="470" as="sourcePoint" />
            <mxPoint x="-70.55" y="540" as="targetPoint" />
          </mxGeometry>
        </mxCell>
        <mxCell id="VlXUqlwVu7cq7PH0LeZ4-17" value="使用节点id、remote_account、remote_password发出post请求" style="rounded=1;whiteSpace=wrap;html=1;" vertex="1" parent="WIyWlLk6GJQsqaUBKTNV-1">
          <mxGeometry x="-165" y="540" width="190" height="40" as="geometry" />
        </mxCell>
        <mxCell id="VlXUqlwVu7cq7PH0LeZ4-18" value="" style="rounded=0;html=1;jettySize=auto;orthogonalLoop=1;fontSize=11;endArrow=block;endFill=0;endSize=8;strokeWidth=1;shadow=0;labelBackgroundColor=none;edgeStyle=orthogonalEdgeStyle;entryX=0.5;entryY=0;entryDx=0;entryDy=0;" edge="1" parent="WIyWlLk6GJQsqaUBKTNV-1">
          <mxGeometry relative="1" as="geometry">
            <mxPoint x="-70.92" y="580" as="sourcePoint" />
            <mxPoint x="-70.56" y="650" as="targetPoint" />
          </mxGeometry>
        </mxCell>
        <mxCell id="VlXUqlwVu7cq7PH0LeZ4-19" value="将token缓存到redis和全局变量" style="rounded=1;whiteSpace=wrap;html=1;" vertex="1" parent="WIyWlLk6GJQsqaUBKTNV-1">
          <mxGeometry x="-160" y="650" width="180" height="40" as="geometry" />
        </mxCell>
        <mxCell id="VlXUqlwVu7cq7PH0LeZ4-20" value="异步执行启动时任务&lt;div&gt;startup_initial_tasks&lt;/div&gt;" style="rounded=1;whiteSpace=wrap;html=1;" vertex="1" parent="WIyWlLk6GJQsqaUBKTNV-1">
          <mxGeometry x="155" y="170" width="130" height="40" as="geometry" />
        </mxCell>
        <mxCell id="VlXUqlwVu7cq7PH0LeZ4-21" value="" style="rounded=0;html=1;jettySize=auto;orthogonalLoop=1;fontSize=11;endArrow=block;endFill=0;endSize=8;strokeWidth=1;shadow=0;labelBackgroundColor=none;edgeStyle=orthogonalEdgeStyle;exitX=1;exitY=0.5;exitDx=0;exitDy=0;entryX=0;entryY=0.5;entryDx=0;entryDy=0;" edge="1" parent="WIyWlLk6GJQsqaUBKTNV-1" source="VlXUqlwVu7cq7PH0LeZ4-20" target="VlXUqlwVu7cq7PH0LeZ4-22">
          <mxGeometry relative="1" as="geometry">
            <mxPoint x="290" y="190" as="sourcePoint" />
            <mxPoint x="390" y="190" as="targetPoint" />
            <Array as="points">
              <mxPoint x="360" y="190" />
              <mxPoint x="360" y="90" />
            </Array>
          </mxGeometry>
        </mxCell>
        <mxCell id="VlXUqlwVu7cq7PH0LeZ4-22" value="新设备监控任务&lt;div&gt;new_device_monitor&lt;/div&gt;" style="rounded=1;whiteSpace=wrap;html=1;" vertex="1" parent="WIyWlLk6GJQsqaUBKTNV-1">
          <mxGeometry x="445" y="70" width="130" height="40" as="geometry" />
        </mxCell>
        <mxCell id="VlXUqlwVu7cq7PH0LeZ4-23" value="" style="rounded=0;html=1;jettySize=auto;orthogonalLoop=1;fontSize=11;endArrow=block;endFill=0;endSize=8;strokeWidth=1;shadow=0;labelBackgroundColor=none;edgeStyle=orthogonalEdgeStyle;entryX=0;entryY=0.5;entryDx=0;entryDy=0;" edge="1" parent="WIyWlLk6GJQsqaUBKTNV-1" target="VlXUqlwVu7cq7PH0LeZ4-24">
          <mxGeometry relative="1" as="geometry">
            <mxPoint x="360" y="190" as="sourcePoint" />
            <mxPoint x="360" y="270" as="targetPoint" />
            <Array as="points">
              <mxPoint x="360" y="315" />
            </Array>
          </mxGeometry>
        </mxCell>
        <mxCell id="VlXUqlwVu7cq7PH0LeZ4-24" value="节点心跳检测ping_node" style="rounded=1;whiteSpace=wrap;html=1;" vertex="1" parent="WIyWlLk6GJQsqaUBKTNV-1">
          <mxGeometry x="445" y="295" width="100" height="40" as="geometry" />
        </mxCell>
        <mxCell id="VlXUqlwVu7cq7PH0LeZ4-27" value="" style="rounded=0;html=1;jettySize=auto;orthogonalLoop=1;fontSize=11;endArrow=block;endFill=0;endSize=8;strokeWidth=1;shadow=0;labelBackgroundColor=none;edgeStyle=orthogonalEdgeStyle;entryX=0;entryY=0.5;entryDx=0;entryDy=0;" edge="1" parent="WIyWlLk6GJQsqaUBKTNV-1" target="VlXUqlwVu7cq7PH0LeZ4-28">
          <mxGeometry relative="1" as="geometry">
            <mxPoint x="360" y="190" as="sourcePoint" />
            <mxPoint x="495" y="212.5" as="targetPoint" />
            <Array as="points">
              <mxPoint x="403" y="190" />
              <mxPoint x="403" y="190" />
            </Array>
          </mxGeometry>
        </mxCell>
        <mxCell id="VlXUqlwVu7cq7PH0LeZ4-28" value="拉取今天任务&lt;div&gt;pull_today_tasks&lt;/div&gt;" style="rounded=1;whiteSpace=wrap;html=1;" vertex="1" parent="WIyWlLk6GJQsqaUBKTNV-1">
          <mxGeometry x="445" y="170" width="110" height="40" as="geometry" />
        </mxCell>
        <mxCell id="VlXUqlwVu7cq7PH0LeZ4-31" value="main_timer主程序入口" style="rounded=1;whiteSpace=wrap;html=1;" vertex="1" parent="WIyWlLk6GJQsqaUBKTNV-1">
          <mxGeometry x="150" y="-20" width="140" height="40" as="geometry" />
        </mxCell>
        <mxCell id="VlXUqlwVu7cq7PH0LeZ4-32" value="" style="rounded=0;html=1;jettySize=auto;orthogonalLoop=1;fontSize=11;endArrow=block;endFill=0;endSize=8;strokeWidth=1;shadow=0;labelBackgroundColor=none;edgeStyle=orthogonalEdgeStyle;entryX=0.5;entryY=0;entryDx=0;entryDy=0;" edge="1" parent="WIyWlLk6GJQsqaUBKTNV-1" target="WIyWlLk6GJQsqaUBKTNV-3">
          <mxGeometry relative="1" as="geometry">
            <mxPoint x="219.76" y="20" as="sourcePoint" />
            <mxPoint x="219.76" y="70" as="targetPoint" />
          </mxGeometry>
        </mxCell>
      </root>
    </mxGraphModel>
  </diagram>
</mxfile>
